<svg width="25" height="25" fill="none" xmlns="http://www.w3.org/2000/svg"><path d="M24.856 5.213a.802.802 0 00-.624-.343L8.724 4.202a.802.802 0 10-.069 1.602l14.458.623-2.842 8.867H7.62L5.334 2.854a.802.802 0 00-.496-.602L1.096.782a.803.803 0 00-.587 1.493l3.328 1.307L6.163 16.24c.07.38.402.656.79.656h.385l-.881 2.447a.667.667 0 00.629.894h.618a2.391 2.391 0 00-.618 1.604 2.409 2.409 0 002.406 2.406 2.409 2.409 0 002.406-2.406 2.39 2.39 0 00-.617-1.604h5.246a2.391 2.391 0 00-.618 1.604 2.409 2.409 0 002.406 2.406 2.409 2.409 0 002.407-2.406 2.39 2.39 0 00-.618-1.604h.752a.668.668 0 100-1.336H8.036l.723-2.005h12.096a.802.802 0 00.764-.557l3.343-10.424a.8.8 0 00-.106-.703zM9.492 22.91c-.59 0-1.07-.48-1.07-1.069a1.07 1.07 0 012.14 0c0 .59-.48 1.07-1.07 1.07zm8.823 0a1.07 1.07 0 010-2.138 1.07 1.07 0 010 2.138z" fill="#6130AF"/></svg>