<svg width="14" height="14" fill="none" xmlns="http://www.w3.org/2000/svg"><g clip-path="url(#clip0)"><path d="M13.556 6.147L7.326.133a.467.467 0 00-.652 0L.444 6.147a.47.47 0 00.327.808h.828v6.575c0 .26.21.47.47.47h3.287c.26 0 .47-.21.47-.47V9.773h2.348v3.757c0 .26.21.47.47.47h3.288c.26 0 .47-.21.47-.47V6.955h.827a.47.47 0 00.327-.808zm-1.155.338a.47.47 0 00-.47.47v6.575H8.645V9.773a.47.47 0 00-.47-.47H5.826a.47.47 0 00-.47.47v3.757H2.068V6.955a.47.47 0 00-.47-.47H.772L7 .471l6.232 6.014h-.83z" fill="#37475F"/></g><defs><clipPath id="clip0"><path fill="#fff" d="M0 0h14v14H0z"/></clipPath></defs></svg>