<svg width="201" height="39" fill="none" xmlns="http://www.w3.org/2000/svg"><path d="M55.36 19l-.013-5.46-2.678 4.498h-.949l-2.665-4.381V19h-1.976V9.9h1.742l3.406 5.655L55.581 9.9h1.729l.026 9.1H55.36zm10.128-1.95h-4.225L60.457 19h-2.158l4.056-9.1h2.08l4.069 9.1h-2.21l-.806-1.95zm-.663-1.599l-1.443-3.484-1.443 3.484h2.886zM77.795 9.9V19h-1.73l-4.537-5.525V19h-2.08V9.9h1.742l4.524 5.525V9.9h2.08zm8.301 4.407h1.924v3.692a5.495 5.495 0 01-1.716.858c-.65.2-1.304.299-1.963.299-.944 0-1.794-.2-2.548-.598a4.608 4.608 0 01-1.78-1.677c-.425-.72-.638-1.53-.638-2.431s.213-1.707.637-2.418a4.464 4.464 0 011.794-1.677c.763-.407 1.62-.611 2.574-.611.797 0 1.521.134 2.171.403.65.269 1.196.659 1.638 1.17l-1.352 1.248c-.65-.685-1.434-1.027-2.353-1.027-.58 0-1.096.121-1.547.364-.45.243-.802.585-1.053 1.027-.251.442-.377.949-.377 1.521a3 3 0 00.377 1.508 2.72 2.72 0 001.04 1.04c.45.243.962.364 1.534.364.607 0 1.153-.13 1.638-.39v-2.665zm8.287 4.849c-.944 0-1.798-.204-2.56-.611a4.608 4.608 0 01-1.781-1.677c-.425-.72-.638-1.525-.638-2.418 0-.893.213-1.694.638-2.405a4.578 4.578 0 011.78-1.69c.763-.407 1.617-.611 2.561-.611.945 0 1.794.204 2.549.611.754.407 1.347.97 1.78 1.69.434.71.65 1.512.65 2.405 0 .893-.216 1.699-.65 2.418a4.609 4.609 0 01-1.78 1.677c-.755.407-1.604.611-2.549.611zm0-1.794c.538 0 1.023-.121 1.457-.364a2.66 2.66 0 001.013-1.04c.252-.442.378-.945.378-1.508a3 3 0 00-.377-1.508 2.57 2.57 0 00-1.014-1.027 2.85 2.85 0 00-1.457-.377c-.537 0-1.022.126-1.456.377a2.658 2.658 0 00-1.027 1.027 3.081 3.081 0 00-.364 1.508c0 .563.122 1.066.364 1.508.252.442.594.789 1.027 1.04.434.243.92.364 1.456.364z" fill="#4D7FCC"/><path d="M47.298 24.3h.803v6.38l4.928-6.38h.737V32h-.803v-6.369L48.035 32h-.737v-7.7zm8.88 1.914h.78v2.563H60.6v-2.563h.781V32h-.78v-2.552h-3.642V32h-.78v-5.786zm11.492.693h-2.189V32h-.78v-5.093h-2.19v-.693h5.16v.693zm5.92 2.442h-4.84c.045.601.276 1.089.694 1.463.418.367.946.55 1.584.55.36 0 .69-.062.99-.187.3-.132.56-.323.78-.572l.44.506a2.456 2.456 0 01-.967.704 3.215 3.215 0 01-1.265.242c-.594 0-1.122-.125-1.584-.374a2.786 2.786 0 01-1.067-1.056 2.995 2.995 0 01-.385-1.518c0-.565.12-1.07.363-1.518a2.72 2.72 0 011.012-1.045 2.85 2.85 0 011.452-.374c.535 0 1.016.125 1.44.374.426.25.76.598 1.002 1.045.242.44.363.946.363 1.518l-.011.242zm-2.793-2.508c-.557 0-1.027.18-1.408.539-.374.352-.587.814-.638 1.386h4.103c-.051-.572-.268-1.034-.65-1.386-.373-.36-.842-.539-1.407-.539zm7.515-.671c.542 0 1.034.125 1.474.374.44.242.784.587 1.034 1.034.25.447.374.957.374 1.529 0 .58-.125 1.093-.374 1.54-.25.447-.594.796-1.034 1.045a2.967 2.967 0 01-1.474.363c-.47 0-.895-.095-1.276-.286a2.463 2.463 0 01-.924-.858v3.223h-.781v-7.92h.748v1.144c.234-.381.542-.675.924-.88a2.76 2.76 0 011.309-.308zm-.055 5.192c.403 0 .77-.092 1.1-.275.33-.19.586-.458.77-.803a2.39 2.39 0 00.286-1.177c0-.44-.096-.829-.286-1.166a1.982 1.982 0 00-.77-.803 2.158 2.158 0 00-1.1-.286c-.41 0-.781.095-1.111.286-.323.19-.58.458-.77.803a2.403 2.403 0 00-.275 1.166c0 .44.091.832.275 1.177.19.345.447.612.77.803.33.183.7.275 1.11.275zm4.615-5.148h.78v2.563h3.642v-2.563h.78V32h-.78v-2.552h-3.641V32h-.781v-5.786zm12.483 3.135h-4.84c.044.601.275 1.089.693 1.463.418.367.946.55 1.584.55.359 0 .689-.062.99-.187.3-.132.56-.323.78-.572l.44.506a2.47 2.47 0 01-.967.704 3.215 3.215 0 01-1.265.242c-.594 0-1.122-.125-1.584-.374a2.786 2.786 0 01-1.067-1.056 2.994 2.994 0 01-.385-1.518c0-.565.12-1.07.363-1.518a2.72 2.72 0 011.012-1.045c.432-.25.916-.374 1.452-.374.535 0 1.015.125 1.44.374.426.25.76.598 1.002 1.045.242.44.363.946.363 1.518l-.011.242zm-2.794-2.508c-.558 0-1.027.18-1.408.539-.374.352-.587.814-.638 1.386h4.103c-.052-.572-.268-1.034-.65-1.386-.373-.36-.843-.539-1.407-.539zm8.346.066h-2.19V32h-.78v-5.093h-2.19v-.693h5.16v.693zm.42 1.771h2.882v.682h-2.882v-.682zm11.119-2.464V32h-.715v-4.576l-2.343 3.872h-.352l-2.343-3.883V32h-.715v-5.786h.792l2.453 4.169 2.497-4.169h.726zm4.214-.044c.755 0 1.334.19 1.738.572.403.374.605.931.605 1.672V32h-.748v-.902c-.176.3-.437.535-.781.704-.338.169-.741.253-1.21.253-.646 0-1.159-.154-1.54-.462-.382-.308-.572-.715-.572-1.221 0-.491.176-.887.528-1.188.359-.3.927-.451 1.705-.451h1.837v-.352c0-.499-.14-.876-.418-1.133-.279-.264-.686-.396-1.221-.396-.367 0-.719.062-1.056.187a2.58 2.58 0 00-.869.495l-.352-.583c.293-.25.645-.44 1.056-.572a3.99 3.99 0 011.298-.209zm-.275 5.269c.44 0 .817-.099 1.133-.297a1.84 1.84 0 00.704-.88v-.946h-1.815c-.99 0-1.485.345-1.485 1.034a.96.96 0 00.385.803c.256.19.616.286 1.078.286zm8.789-4.532h-3.311V32h-.781v-5.786h4.092v.693zm3.119-.737c.756 0 1.335.19 1.738.572.404.374.605.931.605 1.672V32h-.748v-.902a1.79 1.79 0 01-.781.704c-.337.169-.74.253-1.21.253-.645 0-1.158-.154-1.54-.462-.381-.308-.572-.715-.572-1.221 0-.491.176-.887.528-1.188.36-.3.928-.451 1.705-.451h1.837v-.352c0-.499-.139-.876-.418-1.133-.278-.264-.685-.396-1.221-.396a3.02 3.02 0 00-1.056.187 2.589 2.589 0 00-.869.495l-.352-.583c.294-.25.646-.44 1.056-.572.411-.14.844-.209 1.298-.209zm-.275 5.269c.44 0 .818-.099 1.133-.297.316-.205.55-.499.704-.88v-.946h-1.815c-.99 0-1.485.345-1.485 1.034 0 .337.129.605.385.803.257.19.616.286 1.078.286zm7.395-2.453c.411.095.726.26.946.495.228.235.341.52.341.858 0 .337-.117.638-.352.902-.227.264-.539.47-.935.616a3.92 3.92 0 01-1.309.209c-.418 0-.828-.059-1.232-.176a3.271 3.271 0 01-1.056-.539l.264-.583c.264.198.572.352.924.462.352.11.708.165 1.067.165.536 0 .972-.099 1.309-.297.345-.205.517-.48.517-.825 0-.308-.139-.546-.418-.715-.278-.176-.66-.264-1.144-.264h-.99v-.572h.946c.433 0 .781-.08 1.045-.242.264-.169.396-.392.396-.671 0-.308-.15-.55-.451-.726-.293-.176-.678-.264-1.155-.264-.623 0-1.239.158-1.848.473l-.22-.605a4.588 4.588 0 012.145-.539c.44 0 .836.066 1.188.198.36.125.638.304.836.539.206.235.308.506.308.814 0 .293-.102.554-.308.781-.198.227-.469.396-.814.506zm3.06-2.772h.781v4.598l3.861-4.598h.693V32h-.781v-4.598L139.177 32h-.704v-5.786zm7.574 0h.781v2.563h3.641v-2.563h.781V32h-.781v-2.552h-3.641V32h-.781v-5.786zm12.688 5.841a3.045 3.045 0 01-1.507-.374 2.813 2.813 0 01-1.056-1.056 3.002 3.002 0 01-.385-1.518c0-.565.129-1.07.385-1.518a2.733 2.733 0 011.056-1.045c.448-.25.95-.374 1.507-.374.558 0 1.06.125 1.507.374.448.25.796.598 1.045 1.045.257.447.385.953.385 1.518 0 .565-.128 1.07-.385 1.518a2.72 2.72 0 01-1.045 1.056 3.04 3.04 0 01-1.507.374zm0-.693c.411 0 .778-.092 1.1-.275.33-.19.587-.458.77-.803a2.46 2.46 0 00.275-1.177c0-.44-.091-.832-.275-1.177a1.907 1.907 0 00-.77-.792 2.118 2.118 0 00-1.1-.286c-.41 0-.781.095-1.111.286a2.008 2.008 0 00-.77.792 2.471 2.471 0 00-.275 1.177c0 .44.092.832.275 1.177.191.345.448.612.77.803.33.183.701.275 1.111.275zm10.217-.044v2.079h-.737V32h-5.181v1.397h-.737v-2.079h.33c.389-.022.653-.308.792-.858.14-.55.235-1.32.286-2.31l.077-1.936h4.268v5.104h.902zm-4.532-3.124c-.036.821-.106 1.5-.209 2.035-.102.528-.286.891-.55 1.089h3.608v-4.411h-2.783l-.066 1.287zm11.114 1.155h-4.84c.044.601.275 1.089.693 1.463.418.367.946.55 1.584.55.36 0 .69-.062.99-.187.301-.132.561-.323.781-.572l.44.506a2.462 2.462 0 01-.968.704 3.214 3.214 0 01-1.265.242c-.594 0-1.122-.125-1.584-.374a2.793 2.793 0 01-1.067-1.056 3.002 3.002 0 01-.385-1.518c0-.565.121-1.07.363-1.518.25-.447.587-.796 1.012-1.045a2.85 2.85 0 011.452-.374c.536 0 1.016.125 1.441.374.426.25.759.598 1.001 1.045.242.44.363.946.363 1.518l-.011.242zm-2.794-2.508c-.557 0-1.026.18-1.408.539-.374.352-.586.814-.638 1.386h4.103c-.051-.572-.267-1.034-.649-1.386-.374-.36-.843-.539-1.408-.539zm9.444 2.585h-1.254V32h-.781v-2.574h-1.254L177.124 32h-.935l2.079-2.981-1.914-2.805h.847l1.694 2.541h1.254v-2.541h.781v2.541h1.254l1.705-2.541h.847l-1.914 2.816 2.079 2.97h-.935l-1.782-2.574zm9.66 1.892v2.079h-.737V32h-5.181v1.397h-.737v-2.079h.33c.389-.022.653-.308.792-.858s.235-1.32.286-2.31l.077-1.936h4.268v5.104h.902zm-4.532-3.124c-.037.821-.106 1.5-.209 2.035-.103.528-.286.891-.55 1.089h3.608v-4.411h-2.783l-.066 1.287zm8.485.066c.726.007 1.28.169 1.661.484.381.315.572.77.572 1.364 0 .616-.205 1.089-.616 1.419-.411.33-.997.491-1.76.484L193.366 32v-5.786h.781v2.024l1.65.022zm3.201-2.046h.781V32h-.781v-5.786zm-3.388 5.203c.535.007.939-.099 1.21-.319.279-.227.418-.557.418-.99 0-.425-.136-.74-.407-.946-.271-.205-.678-.312-1.221-.319l-1.463-.022v2.574l1.463.022z" fill="#37475F"/><path d="M38 23.606h-6.784v-6.702h-1.358v21.447H8.142V16.904h-1.36v6.702H0v-4.022h.03C.233 12.73.107 5.45 4.952 1.825 6.137.74 11.163 2.205 12.09.351c1.588 2.28 4.003 4.49 7.016 4.49 3.02 0 4.782-2.032 6.375-4.312.34 1.296 4.876.21 6.783 1.55 4.826 3.624 5.507 10.67 5.704 17.505h.03v4.022H38z" fill="#4D7FCC"/></svg>